<?xml version="1.0" encoding="utf-8"?>
<!-- Generator: Adobe Illustrator 18.1.0, SVG Export Plug-In . SVG Version: 6.00 Build 0)  -->
<svg version="1.1" id="Layer_1" xmlns="http://www.w3.org/2000/svg" xmlns:xlink="http://www.w3.org/1999/xlink" x="0px" y="0px"
	 viewBox="0 0 100 100" enable-background="new 0 0 100 100" xml:space="preserve">
<path fill="#404041" d="M27.1,55.7c4.1,0,7.5-3.4,7.5-7.5v-9.8c0-0.4,0.2-0.9,0.5-1.2c0.3-0.3,0.7-0.5,1.2-0.5c0,0,0,0,0,0
	c0.4,0,0.9,0.2,1.2,0.5c0.3,0.3,0.5,0.7,0.5,1.2v23.1c0,2,0.8,3.9,2.2,5.3c1.4,1.4,3.3,2.2,5.3,2.2c0,0,0,0,0,0c2,0,3.9-0.8,5.3-2.2
	c1.4-1.4,2.2-3.3,2.2-5.3V47c0-0.9,0.7-1.7,1.7-1.7c0.9,0,1.7,0.7,1.7,1.7v11.6c0,4.1,3.4,7.5,7.5,7.5c4.1,0,7.5-3.4,7.5-7.5v-1.2
	c0-0.4,0.2-0.9,0.5-1.2c0.3-0.3,0.7-0.5,1.2-0.5c0,0,0,0,0,0H79c1.3,4.5,5.4,7.8,10.3,7.8h0c5.9,0,10.7-4.8,10.7-10.7
	s-4.8-10.7-10.7-10.7c-4.9,0-9,3.3-10.3,7.8h-6.1c0,0,0,0,0,0c-2,0-3.9,0.8-5.3,2.2c-1.4,1.4-2.2,3.3-2.2,5.3v1.2
	c0,0.9-0.7,1.7-1.7,1.7c-0.9,0-1.7-0.7-1.7-1.7V47c0-4.1-3.4-7.5-7.5-7.5c-4.1,0-7.5,3.4-7.5,7.5v14.5c0,0.4-0.2,0.9-0.5,1.2
	c-0.3,0.3-0.7,0.5-1.2,0.5c0,0,0,0,0,0c-0.4,0-0.9-0.2-1.2-0.5c-0.3-0.3-0.5-0.7-0.5-1.2V38.4c0-2-0.8-3.9-2.2-5.3
	c-1.4-1.4-3.3-2.2-5.3-2.2c0,0,0,0,0,0c-2,0-3.9,0.8-5.3,2.2c-1.4,1.4-2.2,3.3-2.2,5.3v9.8c0,0.9-0.7,1.7-1.7,1.7h-6
	c-1.3-4.5-5.4-7.8-10.3-7.8c-5.9,0-10.7,4.8-10.7,10.7c0,5.9,4.8,10.7,10.7,10.7h0c4.9,0,9-3.3,10.3-7.8H27.1 M89.3,57.7
	c-2.7,0-4.9-2.2-4.9-4.9c0-1.3,0.5-2.5,1.4-3.4c0.9-0.9,2.1-1.4,3.4-1.4c2.7,0,4.9,2.2,4.9,4.9C94.2,55.5,92,57.7,89.3,57.7
	 M10.8,57.7c-2.7,0-4.9-2.2-4.9-4.9c0-1.3,0.5-2.5,1.4-3.4c0.9-0.9,2.1-1.4,3.4-1.4c2.7,0,4.9,2.2,4.9,4.9
	C15.6,55.5,13.5,57.7,10.8,57.7"/>
</svg>
