<?xml version="1.0" standalone="no"?>
<!DOCTYPE svg PUBLIC "-//W3C//DTD SVG 1.1//EN" "http://www.w3.org/Graphics/SVG/1.1/DTD/svg11.dtd" >
<svg xmlns="http://www.w3.org/2000/svg">
<metadata></metadata>
<defs>
<font id="codee_sansmono" horiz-adv-x="1116" >
<font-face units-per-em="2048" ascent="1634" descent="-414" />
<missing-glyph horiz-adv-x="500" />
<glyph horiz-adv-x="2048" />
<glyph horiz-adv-x="2048" />
<glyph unicode="&#xd;" horiz-adv-x="2048" />
<glyph unicode=" " />
<glyph unicode="!" d="M471 0v238h170v-238h-170zM471 1413h172l-14 -913h-144z" />
<glyph unicode="&#x22;" d="M244 1413h172v-608h-158zM705 805v608h172l-15 -608h-157z" />
<glyph unicode="&#x26;" d="M63 365q0 79 22.5 149.5t54.5 114.5t64 77t54 48l23 14l24 14q-5 6 -14.5 17t-32.5 45.5t-41 69t-32.5 83.5t-14.5 93q0 152 95.5 242.5t248.5 90.5q86 0 151 -26t102.5 -71t56 -100t18.5 -118q0 -50 -19 -98t-46 -80t-54.5 -57t-46.5 -37l-19 -11l-110 -65l256 -342 q9 30 14.5 60.5t6.5 45.5l1 15h172q0 -135 -79 -273l198 -266h-233l-86 117q-146 -129 -346 -129q-87 0 -155.5 22t-111.5 58.5t-71 86.5t-39 101.5t-11 108.5zM229 373q0 -49 12 -89t31 -64t41.5 -42t45.5 -26t42 -12t31 -4l12 -1q162 0 263 105l-318 428q-9 -5 -24 -16 t-40 -37.5t-45 -58t-35.5 -81t-15.5 -102.5zM356 1098q0 -44 24 -96t48 -82l23 -31l12 -17l84 50q5 3 14 8.5t31.5 23.5t40 38t31.5 51.5t14 64.5q0 89 -49.5 129.5t-124.5 40.5q-66 0 -107 -52t-41 -128z" />
<glyph unicode="(" d="M291 500q0 107 22 214.5t57.5 195t78.5 168.5t85.5 140.5t78 104.5t57.5 67l22 23l133 -123q-7 -6 -19 -17t-47.5 -49.5t-67 -82.5t-70.5 -114.5t-67.5 -145.5t-47.5 -175.5t-19 -205.5q0 -104 18.5 -205.5t48 -179.5t65.5 -148.5t72 -120t65.5 -86t47.5 -54.5l19 -17 l-131 -103q-8 8 -22.5 23.5t-56.5 66.5t-79.5 106t-84 139.5t-79.5 170t-56 194t-23 214.5z" />
<glyph unicode=")" d="M309 1300l123 123q15 -16 40.5 -46t90 -126t114 -197.5t90 -252t40.5 -297.5q0 -107 -20.5 -215.5t-54 -196t-73.5 -169t-79.5 -141.5t-73 -105t-54.5 -68l-20 -23l-121 103q7 6 18 18t43.5 53t62 87t65.5 119.5t61.5 150.5t43.5 179.5t18 207.5t-17.5 206t-45 178 t-61 145.5t-67 116t-61 82.5t-45.5 52z" />
<glyph unicode="," d="M373 -356l110 356v264h265v-264l-226 -356h-149z" />
<glyph unicode="-" d="M391 395v144h338v-144h-338z" />
<glyph unicode="." d="M336 0v340h266v-340h-266z" />
<glyph unicode="/" d="M117 -201l686 1624h194l-688 -1624h-192z" />
<glyph unicode=":" d="M424 0v340h266v-340h-266zM424 664v340h266v-340h-266z" />
<glyph unicode=";" d="M375 -281l110 357v264h265v-264l-226 -357h-149zM483 664v340h267v-340h-267z" />
<glyph unicode="&#x3c;" d="M139 397v217l811 408v-209l-631 -305l631 -311v-209z" />
<glyph unicode="=" d="M137 248v143h838v-143h-838zM137 553v143h836v-143h-836z" />
<glyph unicode="&#x3e;" d="M168 -12v209l631 311l-631 305v209l811 -408v-217z" />
<glyph unicode="?" d="M127 1143v157q5 5 15 12.5t44.5 27t75 34.5t106 27t136.5 12q82 0 160 -23t144.5 -67t107 -119t40.5 -170q0 -60 -33.5 -113t-81 -93t-94.5 -78t-80.5 -84t-33.5 -95v-71h-172v71q0 58 24 108.5t60 83.5t78.5 67t78.5 61.5t60 63.5t24 75q0 49 -15.5 88.5t-40.5 62.5 t-55 39t-60 22.5t-55 10t-40 3.5l-16 -1q-83 0 -177 -28t-147 -56zM461 0v238h172v-238h-172z" />
<glyph unicode="@" d="M0 506q0 169 48 321.5t134 251.5q89 101 213 157t267 56q96 0 187.5 -35t151.5 -94q115 -115 115 -309v-854h-170v139q-131 -151 -258 -151q-74 0 -134 25.5t-107 79.5t-73 145.5t-26 214.5q0 434 438 434l7 -137q-142 0 -208.5 -68.5t-66.5 -228.5q0 -162 51 -241 t146 -79q131 0 231 133v559q0 84 -13 126.5t-52 86.5q-80 80 -230 80q-235 0 -360 -164q-137 -169 -137 -448q0 -282 153 -455q160 -184 398 -184q88 -8 213 33l40 -111q-106 -39 -219 -39q-336 0 -524 197q-101 104 -158 247.5t-57 311.5z" />
<glyph unicode="[" d="M319 -414v1827h484v-137h-320v-1550h320v-140h-484z" />
<glyph unicode="]" d="M319 -274h320v1550h-320v137h484v-1827h-484v140z" />
<glyph unicode="_" d="M35 -270h1022v-144h-1022v144z" />
<glyph unicode="a" d="M160 272q0 64 14.5 116.5t38 89.5t60 65t72 44.5t84 27t87 14t89 3.5t81.5 -2t73 -5l56 -4v32q0 126 -69.5 180t-180.5 54q-53 0 -102.5 -11t-82 -27.5t-57 -32.5t-35.5 -27l-12 -11l-75 111q7 5 20.5 14.5t55.5 32.5t83.5 41t100.5 32.5t112 14.5q65 0 122 -10 t112.5 -35.5t94.5 -65.5t63 -105t24 -149v-657h-174v72q-150 -84 -350 -84q-134 0 -219.5 80t-85.5 202zM322 313q0 -194 200 -194q132 0 293 98v297q-47 2 -88 2q-130 0 -207 -17q-198 -43 -198 -186z" />
<glyph unicode="b" d="M211 27v1386h172v-575q58 75 133 129.5t156 54.5q80 0 145 -29t116.5 -90.5t80 -167.5t28.5 -250q0 -115 -25 -203t-67 -143t-103.5 -89.5t-128.5 -48t-149 -13.5q-83 0 -172.5 9.5t-137.5 19.5zM383 137q93 -14 178 -14q159 0 235 82.5t76 273.5q0 194 -58 289.5 t-165 95.5q-151 0 -266 -166v-561z" />
<glyph unicode="c" d="M176 502q4 100 20 178.5t49 143.5t83 108t123 66.5t167 23.5q113 0 210.5 -19.5t138.5 -38.5l41 -20v-158q-17 9 -47 22t-118 34.5t-171 21.5q-60 0 -102 -7.5t-82.5 -30t-65.5 -62t-40.5 -105t-16.5 -157.5q1 -77 11 -135t30 -97t44.5 -64t61 -38t72.5 -18t86 -5 q83 0 167 19t127 38l42 19v-158q-6 -3 -16.5 -8t-47.5 -18t-79 -23t-109 -18t-138 -8q-118 0 -201.5 34.5t-134 102.5t-75 160t-29.5 217z" />
<glyph unicode="d" d="M174 524q0 115 25 203t67 143t103.5 90t128.5 48.5t149 13.5q105 0 187 -12v403h172v-1413h-172v162q-130 -174 -269 -174q-80 0 -148 29t-124 90t-87.5 167.5t-31.5 249.5zM344 530q0 -194 58 -289.5t165 -95.5q152 0 267 166v561q-99 15 -179 15q-159 0 -235 -83 t-76 -274z" />
<glyph unicode="e" d="M119 502q0 250 121 385t366 135q216 0 330.5 -146t114.5 -432h-746q0 -309 301 -309q67 0 132.5 12t110.5 28.5t80.5 33.5t52.5 29l17 12v-168q-4 -4 -12.5 -10t-41.5 -22.5t-74 -29t-112 -22.5t-153 -10q-115 0 -202 26.5t-140.5 71.5t-86.5 112.5t-45.5 140 t-12.5 163.5zM307 578h561q0 51 -6.5 92t-24 80t-46 65.5t-75.5 42.5t-110 16q-85 0 -145.5 -24t-93 -67.5t-46.5 -93.5t-14 -111z" />
<glyph unicode="f" d="M137 709v143h248v170q0 61 9 116t31 108t56.5 91.5t89.5 62t125 23.5q77 0 138 -10.5t84 -20.5l22 -10v-147q-8 5 -25 12t-77.5 19t-130.5 12q-68 0 -109 -64t-41 -192v-170h412v-143h-412v-709h-172v709h-248z" />
<glyph unicode="g" d="M156 524q0 115 25 203t67 143t103.5 90t128.5 48.5t149 13.5q83 0 172.5 -10t137.5 -20l48 -9v-811q0 -113 -10.5 -201t-37 -166t-70 -128.5t-112 -79.5t-161.5 -29q-113 0 -210 19t-138 38l-41 19v157q20 -8 54.5 -20.5t130.5 -33.5t179 -21q126 0 185 103t59 343 q-58 -75 -133 -129.5t-156 -54.5q-80 0 -145 29t-116.5 90t-80 167t-28.5 250zM326 530q0 -194 58 -289.5t165 -95.5q151 0 266 166v561q-99 15 -178 15q-159 0 -235 -83t-76 -274z" />
<glyph unicode="h" d="M184 0v1413h172v-575q58 75 133 129.5t156 54.5q80 0 145 -29t117 -90.5t80.5 -167.5t28.5 -250v-485h-170v479q0 385 -223 385q-152 0 -267 -166v-698h-172z" />
<glyph unicode="i" d="M188 0v143h330v717h-330v144h502v-861h330v-143h-832zM434 1290q0 56 39 94.5t96 38.5q55 0 94 -38.5t39 -94.5q0 -57 -38.5 -96t-94.5 -39q-57 0 -96 39t-39 96z" />
<glyph unicode="j" d="M111 -227q143 -47 282 -47q126 0 185 103t59 343v688h-377v144h549v-832q0 -113 -10 -201t-36.5 -166t-70 -128.5t-112 -79.5t-160.5 -29q-167 0 -309 43v162zM553 1290q0 56 39 94.5t96 38.5q56 0 94.5 -38.5t38.5 -94.5q0 -57 -38.5 -96t-94.5 -39q-57 0 -96 39t-39 96 z" />
<glyph unicode="k" d="M195 0v1413h172v-844l432 435h227l-420 -420l420 -584h-227l-318 459l-114 -115v-344h-172z" />
<glyph unicode="l" d="M186 0v143h330v1127h-330v143h502v-1270h330v-143h-832z" />
<glyph unicode="m" d="M92 0v1004h172v-101q98 119 187 119q71 0 113 -32t63 -113q104 145 200 145q106 0 156.5 -87t50.5 -296v-639h-155v633q0 49 -4.5 86.5t-16 72t-35 53.5t-57.5 19q-33 0 -57 -24t-35 -58t-17.5 -67.5t-6.5 -57.5l-1 -24v-633h-155v633q0 231 -121 231q-34 0 -58 -26 t-34 -66.5t-13.5 -70.5t-3.5 -56v-645h-172z" />
<glyph unicode="n" d="M174 0v1004h172v-166q58 75 133 129.5t156 54.5q80 0 145 -29t117 -90.5t80.5 -167.5t28.5 -250v-485h-170v479q0 194 -58 289.5t-166 95.5q-151 0 -266 -166v-698h-172z" />
<glyph unicode="o" d="M104 512q0 510 453 510q101 0 181 -26t134 -71.5t90 -110t52 -139.5t16 -163t-16 -164t-52 -143t-90 -114.5t-134 -75t-181 -27.5q-100 0 -178.5 27.5t-129.5 74.5t-84 114.5t-47 143t-14 164.5zM285 512q0 -46 2 -80.5t8.5 -76t18 -72t32.5 -60.5t49.5 -48.5t70.5 -30 t95 -11.5q74 0 128.5 22t85 56.5t48.5 87t23.5 101.5t5.5 112t-5.5 110.5t-23.5 98t-49 83.5t-85 54t-128 21q-53 0 -95 -11t-71 -29t-49.5 -46.5t-32 -57.5t-18 -69.5t-8.5 -74.5t-2 -79z" />
<glyph unicode="p" d="M184 -414v1418h172v-166q58 75 133 129.5t156 54.5q80 0 145 -29t117 -90.5t80.5 -167.5t28.5 -250q0 -115 -25 -203t-67 -143t-103.5 -89.5t-128.5 -48t-149 -13.5q-105 0 -187 12v-414h-172zM356 137q93 -14 179 -14q159 0 235 82.5t76 273.5q0 194 -58 289.5 t-165 95.5q-152 0 -267 -166v-561z" />
<glyph unicode="q" d="M135 524q0 115 25 203t67 143t103.5 90t128.5 48.5t149 13.5q83 0 172.5 -10t137.5 -20l49 -9v-1397h-172v586q-58 -75 -133 -129.5t-156 -54.5q-80 0 -145 29t-117 90t-80.5 167t-28.5 250zM305 530q0 -194 58 -289.5t165 -95.5q152 0 267 166v561q-99 15 -179 15 q-159 0 -235 -83t-76 -274z" />
<glyph unicode="r" d="M195 0v1004h172v-158q59 73 136 126q73 50 150 50h9q160 -3 262 -108q98 -101 98 -272v-13h-176v13q0 55 -16 100q-18 51 -63 86t-112 36h-9q-147 0 -279 -164v-700h-172z" />
<glyph unicode="s" d="M174 53v166q23 -9 61.5 -21.5t139.5 -33.5t180 -21q78 0 137 12t100.5 45.5t41.5 86.5q0 82 -64.5 113.5t-226.5 31.5q-109 0 -183.5 23t-112.5 66t-53.5 92t-15.5 114q0 130 97.5 212.5t299.5 82.5q92 0 186.5 -18.5t142.5 -37.5l48 -18v-160q-22 9 -58 21.5 t-130.5 33.5t-167.5 21q-123 0 -184.5 -26t-61.5 -95q0 -78 48.5 -109.5t191.5 -31.5q99 0 172 -15t129 -49t84.5 -94t28.5 -147q0 -85 -40 -148t-108 -96.5t-143.5 -49t-161.5 -15.5q-224 0 -377 65z" />
<glyph unicode="t" d="M172 860v144h248v409h172v-409h412v-144h-412v-389q0 -65 5.5 -114t14 -84t25.5 -58.5t34.5 -37.5t46 -21t54 -9t64.5 -2q61 0 168 21v-160q-95 -18 -193 -18q-117 0 -193 27t-120 88.5t-61 148t-17 219.5v389h-248z" />
<glyph unicode="u" d="M170 524v480h170v-474q0 -385 223 -385q151 0 266 166v693h172v-1004h-172v172q-144 -184 -288 -184q-80 0 -145 29t-117 90t-80.5 167t-28.5 250z" />
<glyph unicode="v" d="M61 1004h187l319 -797l324 797h158l-404 -1004h-180z" />
<glyph unicode="w" d="M-27 1004h158l176 -801l168 459h160l151 -416l166 758h154l-236 -1004h-143l-186 481l-189 -481h-143z" />
<glyph unicode="x" d="M41 1004h219l299 -394l307 394h207l-401 -502l401 -502h-219l-301 385l-293 -385h-207l396 496z" />
<glyph unicode="y" d="M127 1004h174l317 -785l322 785h174l-403 -1004q-3 -9 -9 -24.5t-28 -60.5t-48 -85.5t-70 -90.5t-93 -86t-118.5 -60.5t-145.5 -24.5v156q58 0 113 28.5t92.5 69t66.5 81t43 69.5l14 28l2 2z" />
<glyph unicode="z" d="M197 0v143h2l616 717h-594v144h783v-144l-617 -717h641v-143h-831z" />
<glyph unicode="{" d="M111 444v140q79 0 126 4t87.5 20.5t59.5 40.5t33 74t17.5 110t3.5 160q0 82 13 147t34 109.5t55.5 77t70.5 50.5t85.5 29t93.5 14t103 3v-145q-62 0 -107 -6.5t-77 -22t-52 -36.5t-31.5 -55t-15.5 -72t-4 -93q0 -79 -3 -134.5t-12 -110t-25.5 -91t-43 -68.5t-65.5 -52 t-92 -33q65 -14 107 -37.5t69.5 -57.5t41 -93t18.5 -126.5t5 -175.5q0 -83 10 -132t41 -86t87.5 -51.5t148.5 -14.5v-146q-59 0 -103 3t-93.5 14t-85.5 29t-70.5 50.5t-55.5 77t-34 109.5t-13 147q0 100 -3.5 160t-17.5 111t-33 76t-60 44.5t-87.5 26.5t-125.5 12z" />
<glyph unicode="}" d="M111 -270q92 0 148.5 14.5t87 51.5t40.5 86t10 132q0 108 5 175.5t19 126.5t41 93t69.5 57.5t107.5 37.5q-63 15 -107 43.5t-70.5 66t-41 97.5t-19 123.5t-4.5 158.5q0 55 -4 93t-15.5 72t-31.5 55t-52 36.5t-76.5 22t-106.5 6.5v145q59 0 102.5 -3t93.5 -14t85.5 -29 t70 -50.5t55.5 -77t34 -109.5t13 -147q0 -99 3.5 -159.5t17.5 -110.5t33 -74t60 -40.5t88 -20.5t126 -4v-140q-59 -4 -98 -8.5t-76 -15t-58 -23t-40.5 -37t-28.5 -52.5t-16 -73.5t-9 -96t-2 -124.5q0 -82 -13 -147t-34 -109.5t-55.5 -77t-70 -50.5t-85.5 -29t-93.5 -14 t-102.5 -3v146z" />
<glyph unicode="&#xa0;" />
<glyph unicode="&#xad;" d="M391 395v144h338v-144h-338z" />
<glyph unicode="&#x2000;" horiz-adv-x="711" />
<glyph unicode="&#x2001;" horiz-adv-x="1423" />
<glyph unicode="&#x2002;" horiz-adv-x="711" />
<glyph unicode="&#x2003;" horiz-adv-x="1423" />
<glyph unicode="&#x2004;" horiz-adv-x="474" />
<glyph unicode="&#x2005;" horiz-adv-x="355" />
<glyph unicode="&#x2006;" horiz-adv-x="237" />
<glyph unicode="&#x2007;" horiz-adv-x="237" />
<glyph unicode="&#x2008;" horiz-adv-x="177" />
<glyph unicode="&#x2009;" horiz-adv-x="284" />
<glyph unicode="&#x200a;" horiz-adv-x="79" />
<glyph unicode="&#x2010;" d="M391 395v144h338v-144h-338z" />
<glyph unicode="&#x2011;" d="M391 395v144h338v-144h-338z" />
<glyph unicode="&#x2012;" d="M391 395v144h338v-144h-338z" />
<glyph unicode="&#x2013;" d="M250 395v144h614v-144h-614z" />
<glyph unicode="&#x2014;" d="M43 395v144h1022v-144h-1022z" />
<glyph unicode="&#x202f;" horiz-adv-x="284" />
<glyph unicode="&#x205f;" horiz-adv-x="355" />
<glyph unicode="&#xe000;" horiz-adv-x="1003" d="M0 0v1004h1004v-1004h-1004z" />
</font>
</defs>
</svg>
